<?xml version="1.0" standalone="no"?>
<!DOCTYPE svg PUBLIC "-//W3C//DTD SVG 20010904//EN"
 "http://www.w3.org/TR/2001/REC-SVG-20010904/DTD/svg10.dtd">
<svg version="1.0" xmlns="http://www.w3.org/2000/svg"
 width="260.000000pt" height="260.000000pt" viewBox="0 0 260.000000 260.000000"
 preserveAspectRatio="xMidYMid meet">
<metadata>
Created by potrace 1.11, written by Peter Selinger 2001-2013
</metadata>
<g transform="translate(0.000000,260.000000) scale(0.100000,-0.100000)"
fill="#000000" stroke="none">
<path d="M1216 2024 c-10 -9 -16 -34 -17 -62 -3 -96 -7 -104 -79 -129 -35 -13
-69 -28 -74 -33 -20 -20 -50 -9 -104 35 -30 25 -63 45 -75 45 -11 0 -41 -21
-67 -48 -45 -44 -48 -50 -48 -101 -1 -48 3 -58 39 -101 l39 -46 -20 -42 c-11
-22 -20 -47 -20 -55 0 -33 -25 -47 -98 -53 -42 -4 -80 -13 -88 -21 -19 -19
-20 -216 -2 -231 7 -5 45 -13 85 -17 40 -4 76 -12 81 -18 5 -7 21 -40 34 -74
l25 -62 -37 -45 c-33 -40 -37 -52 -38 -100 0 -53 1 -56 53 -105 62 -59 65 -58
142 7 35 29 59 42 70 39 35 -11 148 -60 160 -69 6 -5 14 -41 18 -81 4 -40 12
-78 17 -84 7 -9 38 -13 88 -13 50 0 81 4 88 13 5 6 13 44 17 84 4 40 12 76 18
81 12 9 125 58 160 69 11 3 35 -10 70 -39 77 -65 80 -66 142 -7 52 49 53 52
53 105 -1 48 -5 60 -38 100 l-37 45 25 62 c13 34 29 67 34 74 5 6 41 14 81 18
40 4 78 12 85 17 8 7 12 43 12 114 0 117 -8 134 -68 135 -20 0 -55 3 -76 7
-37 7 -40 10 -67 77 l-28 69 39 47 c35 41 39 52 38 100 0 51 -3 57 -48 101
-26 27 -56 48 -67 48 -12 0 -45 -20 -75 -45 -54 -44 -84 -55 -104 -35 -5 5
-39 20 -74 33 -72 25 -76 33 -79 129 -1 66 -17 78 -101 78 -49 0 -73 -4 -84
-16z m229 -463 c145 -71 216 -234 158 -363 -30 -65 -95 -133 -162 -165 -74
-37 -200 -40 -272 -7 -92 43 -165 130 -189 226 -10 38 -9 56 4 101 59 204 273
300 461 208z"/>
</g>
</svg>
